<svg aria-hidden="true" style="position: absolute; width: 0; height: 0; overflow: hidden;" version="1.1" xmlns="http://www.w3.org/2000/svg" xmlns:xlink="http://www.w3.org/1999/xlink">
<defs>
<symbol id="icon-facebook" viewBox="0 0 32 32">
<path d="M31.059 15.781c0-2.744-0.669-5.271-2.008-7.58s-3.162-4.15-5.471-5.522c-2.309-1.372-4.836-2.058-7.58-2.058s-5.271 0.686-7.58 2.058c-2.309 1.372-4.133 3.213-5.471 5.522s-2.008 4.836-2.008 7.58c0 2.476 0.552 4.785 1.656 6.927s2.627 3.915 4.568 5.321c1.941 1.405 4.116 2.309 6.525 2.711v-10.541h-3.915v-4.417h3.915v-3.313c0-1.874 0.502-3.33 1.506-4.367s2.376-1.556 4.116-1.556c0.669 0 1.439 0.033 2.309 0.1l1.104 0.201v3.715h-1.907c-0.87 0-1.506 0.217-1.907 0.653s-0.602 1.021-0.602 1.757v2.811h4.217l-0.703 4.417h-3.514v10.541c2.409-0.402 4.585-1.305 6.525-2.711s3.464-3.179 4.568-5.321 1.656-4.451 1.656-6.927z"></path>
</symbol>
<symbol id="icon-fav" viewBox="0 0 32 32">
<path d="M16 12.373l-1.692-3.385c-0.597-1.195-1.294-2.19-2.091-2.987-1.128-1.062-2.356-1.56-3.684-1.493-1.527-0.066-2.837 0.448-3.932 1.543s-1.643 2.373-1.643 3.833c0 1.128 0.265 2.14 0.796 3.036s1.427 1.975 2.688 3.236l2.091 2.091c3.119 2.92 5.608 5.442 7.467 7.566 1.858-2.124 4.347-4.646 7.467-7.566l2.091-2.091c1.261-1.261 2.157-2.34 2.688-3.236s0.796-1.908 0.796-3.036c0-1.46-0.547-2.738-1.643-3.833s-2.406-1.643-3.932-1.643c-1.327 0-2.555 0.531-3.684 1.593-0.796 0.796-1.493 1.792-2.091 2.987l-1.692 3.385zM16.697 27.804c-0.199 0.265-0.431 0.398-0.697 0.398s-0.498-0.133-0.697-0.398c-1.327-1.527-2.754-3.053-4.281-4.58-0.863-0.929-2.091-2.124-3.684-3.584-1.593-1.526-2.721-2.622-3.385-3.285-0.929-1.062-1.643-2.091-2.14-3.086s-0.747-2.14-0.747-3.435c0-1.294 0.332-2.489 0.996-3.584s1.576-1.975 2.738-2.638c1.161-0.664 2.406-0.996 3.733-0.996s2.588 0.398 3.783 1.195c0.929 0.597 1.792 1.427 2.588 2.489 0.398 0.597 0.763 1.228 1.095 1.892 0.332-0.664 0.697-1.294 1.095-1.892 0.796-1.062 1.659-1.892 2.588-2.489 1.195-0.796 2.456-1.195 3.783-1.195s2.572 0.332 3.733 0.996c1.161 0.664 2.074 1.543 2.738 2.638s0.996 2.29 0.996 3.584c0 1.294-0.249 2.439-0.747 3.435s-1.211 2.024-2.14 3.086c-0.664 0.664-1.792 1.759-3.385 3.285-1.593 1.46-2.821 2.655-3.684 3.584-1.526 1.526-2.953 3.053-4.281 4.58z"></path>
</symbol>
<symbol id="icon-instagram" viewBox="0 0 32 32">
<path d="M16 0c-2.987 0-5.209 0.036-6.667 0.107s-2.72 0.32-3.787 0.747c-1.067 0.427-2.009 1.049-2.827 1.867s-1.44 1.76-1.867 2.827c-0.427 1.067-0.676 2.329-0.747 3.787s-0.107 3.68-0.107 6.667c0 2.987 0.036 5.209 0.107 6.667s0.32 2.72 0.747 3.787c0.427 1.067 1.049 2.009 1.867 2.827s1.76 1.44 2.827 1.867c1.067 0.427 2.329 0.676 3.787 0.747s3.68 0.107 6.667 0.107 5.209-0.036 6.667-0.107c1.458-0.071 2.72-0.32 3.787-0.747s2.009-1.049 2.827-1.867 1.44-1.76 1.867-2.827c0.427-1.067 0.676-2.329 0.747-3.787s0.107-3.68 0.107-6.667-0.036-5.209-0.107-6.667c-0.071-1.458-0.32-2.72-0.747-3.787s-1.049-2.009-1.867-2.827-1.76-1.44-2.827-1.867c-1.067-0.427-2.329-0.676-3.787-0.747s-3.68-0.107-6.667-0.107zM14.613 2.88h1.387c2.987 0 5.156 0.036 6.507 0.107 1.138 0.071 2.080 0.249 2.827 0.533s1.387 0.693 1.92 1.227c0.533 0.533 0.942 1.173 1.227 1.92s0.462 1.689 0.533 2.827c0.071 1.351 0.107 3.52 0.107 6.507s-0.036 5.156-0.107 6.507c-0.071 1.138-0.249 2.080-0.533 2.827s-0.693 1.387-1.227 1.92c-0.533 0.533-1.173 0.942-1.92 1.227s-1.689 0.462-2.827 0.533c-1.422 0.071-3.591 0.107-6.507 0.107s-5.084-0.036-6.507-0.107c-1.138-0.071-2.080-0.249-2.827-0.533s-1.387-0.693-1.92-1.227c-0.533-0.533-0.942-1.173-1.227-1.92s-0.462-1.689-0.533-2.827c-0.071-1.422-0.107-3.609-0.107-6.56s0.036-5.102 0.107-6.453c0.071-1.138 0.249-2.080 0.533-2.827s0.693-1.387 1.227-1.92c0.533-0.533 1.173-0.942 1.92-1.227s1.724-0.462 2.933-0.533c1.209-0.071 2.88-0.107 5.013-0.107zM24.533 5.547c-0.498 0-0.942 0.178-1.333 0.533s-0.587 0.8-0.587 1.333c0 0.533 0.195 0.996 0.587 1.387s0.853 0.587 1.387 0.587c0.533 0 0.978-0.196 1.333-0.587s0.533-0.853 0.533-1.387c0-0.533-0.178-0.978-0.533-1.333s-0.818-0.533-1.387-0.533zM16 7.787c-1.493 0-2.88 0.356-4.16 1.067s-2.293 1.707-3.040 2.987c-0.747 1.28-1.12 2.667-1.12 4.16s0.373 2.88 1.12 4.16c0.747 1.28 1.76 2.276 3.040 2.987s2.667 1.067 4.16 1.067 2.862-0.373 4.107-1.12c1.245-0.747 2.222-1.742 2.933-2.987s1.067-2.613 1.067-4.107-0.355-2.862-1.067-4.107c-0.711-1.244-1.689-2.24-2.933-2.987s-2.613-1.12-4.107-1.12zM16 10.667c0.924 0 1.813 0.231 2.667 0.693s1.511 1.12 1.973 1.973c0.462 0.853 0.693 1.742 0.693 2.667s-0.231 1.813-0.693 2.667c-0.462 0.853-1.12 1.511-1.973 1.973s-1.742 0.693-2.667 0.693c-1.493 0-2.756-0.516-3.787-1.547s-1.547-2.293-1.547-3.787 0.516-2.756 1.547-3.787c1.031-1.031 2.293-1.547 3.787-1.547z"></path>
</symbol>
<symbol id="icon-location" viewBox="0 0 32 32">
<path d="M16 30.362c0.602-0.602 1.205-1.205 1.807-1.807 1.405-1.472 2.677-2.978 3.815-4.518 1.673-2.209 2.978-4.25 3.915-6.124 1.205-2.409 1.807-4.551 1.807-6.425 0-2.008-0.519-3.882-1.556-5.622s-2.409-3.112-4.116-4.116-3.597-1.506-5.672-1.506c-2.075 0-3.966 0.502-5.672 1.506s-3.079 2.376-4.116 4.116c-1.037 1.74-1.556 3.614-1.556 5.622 0 1.874 0.602 4.016 1.807 6.425 0.937 1.874 2.242 3.915 3.915 6.124 1.138 1.539 2.409 3.045 3.815 4.518l1.807 1.807zM16 17.211c-1.539 0-2.861-0.552-3.966-1.656s-1.656-2.443-1.656-4.016c0-1.573 0.552-2.911 1.656-4.016s2.426-1.656 3.966-1.656c1.539 0 2.861 0.552 3.965 1.656s1.656 2.443 1.656 4.016-0.552 2.911-1.656 4.016c-1.104 1.104-2.426 1.656-3.965 1.656z"></path>
</symbol>
<symbol id="icon-mail" viewBox="0 0 32 32">
<path d="M1.042 6.97c0.201-0.87 0.636-1.59 1.305-2.158s1.439-0.853 2.309-0.853h22.689c0.87 0 1.64 0.284 2.309 0.853s1.104 1.288 1.305 2.158l-14.959 9.136-14.958-9.136zM0.941 9.078v13.352l10.943-6.626-10.943-6.726zM13.691 16.909l-12.348 7.529c0.268 0.669 0.72 1.205 1.355 1.606s1.288 0.602 1.958 0.602h22.689c0.669 0 1.322-0.201 1.958-0.602s1.087-0.937 1.355-1.606l-12.348-7.529-2.309 1.405-2.309-1.405zM20.116 15.805l10.943 6.626v-13.352l-10.943 6.726z"></path>
</symbol>
<symbol id="icon-phone" viewBox="0 0 32 32">
<path d="M4.455 1.249c0.736-0.736 1.59-1.071 2.56-1.004s1.757 0.502 2.359 1.305l3.413 4.317c0.335 0.402 0.552 0.853 0.653 1.355s0.084 0.987-0.050 1.456l-1.004 4.116c-0.134 0.469-0.033 0.87 0.301 1.205l4.618 4.618c0.335 0.335 0.736 0.435 1.205 0.301l4.116-1.004c0.469-0.134 0.954-0.151 1.456-0.050s0.954 0.318 1.355 0.653l4.317 3.413c0.803 0.602 1.238 1.389 1.305 2.359s-0.268 1.824-1.004 2.56l-1.907 1.908c-0.736 0.736-1.59 1.221-2.56 1.456s-1.924 0.184-2.861-0.151c-5.020-1.74-9.42-4.501-13.202-8.282s-6.542-8.182-8.282-13.202c-0.335-0.937-0.385-1.891-0.151-2.861s0.719-1.824 1.456-2.56l1.907-1.907z"></path>
</symbol>
<symbol id="icon-pinterest" viewBox="0 0 32 32">
<path d="M16 0c-2.56 0-4.942 0.551-7.147 1.653s-4.071 2.649-5.6 4.64c-1.529 1.991-2.524 4.231-2.987 6.72s-0.356 4.942 0.32 7.36c0.676 2.418 1.849 4.551 3.52 6.4s3.68 3.235 6.027 4.16c-0.213-1.991-0.178-3.52 0.107-4.587l1.813-8-0.213-0.64c-0.142-0.569-0.213-1.138-0.213-1.707 0-1.138 0.284-2.080 0.853-2.827s1.244-1.12 2.027-1.12c0.64 0 1.138 0.213 1.493 0.64s0.533 0.96 0.533 1.6c0 0.64-0.249 1.742-0.747 3.307l-0.533 2.027c-0.213 0.782-0.071 1.476 0.427 2.080s1.138 0.907 1.92 0.907c1.422 0 2.613-0.693 3.573-2.080s1.44-3.147 1.44-5.28c0-1.92-0.622-3.484-1.867-4.693s-2.862-1.813-4.853-1.813c-1.422 0-2.684 0.32-3.787 0.96s-1.938 1.493-2.507 2.56c-0.569 1.067-0.853 2.204-0.853 3.413 0 0.64 0.107 1.298 0.32 1.973s0.498 1.227 0.853 1.653c0.142 0.142 0.178 0.284 0.107 0.427l-0.427 1.813c-0.071 0.285-0.249 0.391-0.533 0.32-0.996-0.498-1.796-1.351-2.4-2.56s-0.907-2.453-0.907-3.733c0-1.707 0.409-3.289 1.227-4.747s2.027-2.631 3.627-3.52c1.6-0.889 3.502-1.333 5.707-1.333 1.849 0 3.52 0.391 5.013 1.173s2.684 1.884 3.573 3.307c0.889 1.422 1.333 3.022 1.333 4.8s-0.355 3.431-1.067 4.96c-0.711 1.529-1.707 2.738-2.987 3.627s-2.702 1.333-4.267 1.333c-0.782 0-1.529-0.178-2.24-0.533s-1.173-0.818-1.387-1.387l-1.067 3.84c-0.284 1.067-0.924 2.453-1.92 4.16 2.987 0.924 5.991 0.96 9.013 0.107s5.582-2.453 7.68-4.8 3.378-5.067 3.84-8.16c0.462-3.093 0.036-6.080-1.28-8.96s-3.289-5.173-5.92-6.88c-2.631-1.707-5.511-2.56-8.64-2.56z"></path>
</symbol>
<symbol id="icon-star" viewBox="0 0 32 32">
<path d="M7.836 30.343c-0.398 0.133-0.747 0.083-1.045-0.149s-0.415-0.581-0.348-1.045l1.493-8.761-6.571-6.272c-0.265-0.332-0.348-0.697-0.249-1.095s0.382-0.63 0.846-0.697l9.060-1.294 4.082-8.064c0.199-0.398 0.498-0.597 0.896-0.597s0.697 0.199 0.896 0.597l4.082 8.064 9.159 1.294c0.398 0.066 0.647 0.299 0.747 0.697s0.017 0.763-0.249 1.095l-6.571 6.272 1.493 8.761c0.066 0.465-0.050 0.813-0.348 1.045s-0.647 0.282-1.045 0.149l-8.164-4.281-8.164 4.281z"></path>
</symbol>
<symbol id="icon-twitter" viewBox="0 0 32 32">
<path d="M10.027 29.973c3.84 0 7.253-0.96 10.24-2.88 2.702-1.778 4.8-4.124 6.293-7.040 1.422-2.844 2.133-5.76 2.133-8.747v-0.853c1.28-0.924 2.382-2.062 3.307-3.413-1.209 0.569-2.453 0.924-3.733 1.067 1.422-0.853 2.382-2.062 2.88-3.627-1.351 0.782-2.738 1.316-4.16 1.6-1.067-1.067-2.329-1.724-3.787-1.973s-2.844-0.018-4.16 0.693c-1.316 0.711-2.276 1.742-2.88 3.093s-0.729 2.738-0.373 4.16c-2.631-0.142-5.138-0.8-7.52-1.973s-4.391-2.791-6.027-4.853c-0.853 1.493-1.084 3.076-0.693 4.747s1.298 3.004 2.72 4c-1.067-0.071-2.062-0.356-2.987-0.853v0.107c0 1.564 0.498 2.951 1.493 4.16s2.24 1.956 3.733 2.24c-0.569 0.213-1.138 0.32-1.707 0.32-0.427 0-0.818-0.036-1.173-0.107 0.427 1.28 1.191 2.347 2.293 3.2s2.364 1.28 3.787 1.28c-1.138 0.924-2.418 1.635-3.84 2.133s-2.844 0.747-4.267 0.747c-0.569 0-1.102-0.036-1.6-0.107 3.058 1.92 6.4 2.88 10.027 2.88z"></path>
</symbol>
</defs>
</svg>
